<?xml version="1.0" encoding="UTF-8" standalone="no"?>
<!DOCTYPE svg PUBLIC "-//W3C//DTD SVG 1.1//EN"
 "http://www.w3.org/Graphics/SVG/1.1/DTD/svg11.dtd">
<!-- Generated by graphviz version 2.43.0 (0)
 -->
<!-- Title: G Pages: 1 -->
<svg width="1011pt" height="724pt"
 viewBox="0.00 0.00 1010.67 724.13" xmlns="http://www.w3.org/2000/svg" xmlns:xlink="http://www.w3.org/1999/xlink">
<g id="graph0" class="graph" transform="scale(1 1) rotate(0) translate(4 720.13)">
<title>G</title><style>.edge>path:hover{stroke-width:8}</style>
<polygon fill="white" stroke="transparent" points="-4,4 -4,-720.13 1006.67,-720.13 1006.67,4 -4,4"/>
<!-- requests -->
<g id="node1" class="node">
<title>requests</title><style>.edge>path:hover{stroke-width:8}</style>
<polygon fill="blue" stroke="black" points="459.36,-36 400.36,-36 400.36,0 459.36,0 459.36,-36"/>
<text text-anchor="middle" x="429.86" y="-15.5" font-family="Helvetica,sans-Serif" font-size="10.00" fill="white">requests</text>
</g>
<!-- requests___version__ -->
<g id="node2" class="node">
<title>requests___version__</title><style>.edge>path:hover{stroke-width:8}</style>
<ellipse fill="#db2f2f" stroke="black" cx="125.86" cy="-538.07" rx="52.15" ry="21.43"/>
<text text-anchor="middle" x="125.86" y="-541.07" font-family="Helvetica,sans-Serif" font-size="10.00" fill="#ffffff">requests.</text>
<text text-anchor="middle" x="125.86" y="-530.07" font-family="Helvetica,sans-Serif" font-size="10.00" fill="#ffffff">__version__</text>
</g>
<!-- requests___version__&#45;&gt;requests -->
<g id="edge1" class="edge">
<title>requests___version__&#45;&gt;requests</title><style>.edge>path:hover{stroke-width:8}</style>
<path fill="none" stroke="black" d="M136.01,-516.96C158.2,-473.64 213.65,-368.88 270.86,-288 288.7,-262.77 303.55,-263.34 315.86,-235"/>
<path fill="none" stroke="black" d="M315.86,-233C327.41,-170.95 305.25,-153.21 315.86,-91"/>
<path fill="none" stroke="black" d="M315.86,-89C321.63,-54.74 359.58,-36.62 390.13,-27.47"/>
<polygon fill="#db2f2f" stroke="black" points="391.45,-30.74 400.15,-24.7 389.58,-23.99 391.45,-30.74"/>
</g>
<!-- requests_help -->
<g id="node11" class="node">
<title>requests_help</title><style>.edge>path:hover{stroke-width:8}</style>
<ellipse fill="#ac4949" stroke="black" cx="48.86" cy="-462.85" rx="48.72" ry="18"/>
<text text-anchor="middle" x="48.86" y="-460.35" font-family="Helvetica,sans-Serif" font-size="10.00" fill="#ffffff">requests.help</text>
</g>
<!-- requests___version__&#45;&gt;requests_help -->
<g id="edge2" class="edge">
<title>requests___version__&#45;&gt;requests_help</title><style>.edge>path:hover{stroke-width:8}</style>
<path fill="none" stroke="black" d="M106.03,-518.21C95.99,-508.67 83.71,-496.99 73.12,-486.92"/>
<polygon fill="#db2f2f" stroke="black" points="75.41,-484.27 65.75,-479.91 70.59,-489.34 75.41,-484.27"/>
</g>
<!-- requests_utils -->
<g id="node18" class="node">
<title>requests_utils</title><style>.edge>path:hover{stroke-width:8}</style>
<polygon fill="blue" stroke="black" points="594.36,-480.85 511.36,-480.85 511.36,-444.85 594.36,-444.85 594.36,-480.85"/>
<text text-anchor="middle" x="552.86" y="-460.35" font-family="Helvetica,sans-Serif" font-size="10.00" fill="white">requests.utils</text>
</g>
<!-- requests___version__&#45;&gt;requests_utils -->
<g id="edge3" class="edge">
<title>requests___version__&#45;&gt;requests_utils</title><style>.edge>path:hover{stroke-width:8}</style>
<path fill="none" stroke="black" d="M173.19,-528.95C253.96,-515.1 417.77,-487.01 501.33,-472.69"/>
<polygon fill="#db2f2f" stroke="black" points="502.09,-476.11 511.35,-470.97 500.91,-469.21 502.09,-476.11"/>
</g>
<!-- requests__internal_utils -->
<g id="node3" class="node">
<title>requests__internal_utils</title><style>.edge>path:hover{stroke-width:8}</style>
<ellipse fill="#f30c0c" stroke="black" cx="699.86" cy="-616.49" rx="60.62" ry="21.43"/>
<text text-anchor="middle" x="699.86" y="-619.49" font-family="Helvetica,sans-Serif" font-size="10.00" fill="#ffffff">requests.</text>
<text text-anchor="middle" x="699.86" y="-608.49" font-family="Helvetica,sans-Serif" font-size="10.00" fill="#ffffff">_internal_utils</text>
</g>
<!-- requests_auth -->
<g id="node6" class="node">
<title>requests_auth</title><style>.edge>path:hover{stroke-width:8}</style>
<polygon fill="blue" stroke="black" points="743.36,-405.64 660.36,-405.64 660.36,-369.64 743.36,-369.64 743.36,-405.64"/>
<text text-anchor="middle" x="701.86" y="-385.14" font-family="Helvetica,sans-Serif" font-size="10.00" fill="white">requests.auth</text>
</g>
<!-- requests__internal_utils&#45;&gt;requests_auth -->
<g id="edge4" class="edge">
<title>requests__internal_utils&#45;&gt;requests_auth</title><style>.edge>path:hover{stroke-width:8}</style>
<path fill="none" stroke="black" d="M627.86,-461.85C617.87,-441.83 634.85,-424.05 655.05,-411.03"/>
<polygon fill="#f30c0c" stroke="black" points="657.07,-413.9 663.84,-405.74 653.46,-407.9 657.07,-413.9"/>
</g>
<!-- requests_cookies -->
<g id="node9" class="node">
<title>requests_cookies</title><style>.edge>path:hover{stroke-width:8}</style>
<ellipse fill="#e90c0c" stroke="black" cx="699.86" cy="-538.07" rx="43.68" ry="21.43"/>
<text text-anchor="middle" x="699.86" y="-541.07" font-family="Helvetica,sans-Serif" font-size="10.00" fill="#ffffff">requests.</text>
<text text-anchor="middle" x="699.86" y="-530.07" font-family="Helvetica,sans-Serif" font-size="10.00" fill="#ffffff">cookies</text>
</g>
<!-- requests__internal_utils&#45;&gt;requests_cookies -->
<g id="edge5" class="edge">
<title>requests__internal_utils&#45;&gt;requests_cookies</title><style>.edge>path:hover{stroke-width:8}</style>
<path fill="none" stroke="black" d="M699.86,-595.01C699.86,-587.15 699.86,-578.01 699.86,-569.42"/>
<polygon fill="#f30c0c" stroke="black" points="703.36,-569.34 699.86,-559.34 696.36,-569.34 703.36,-569.34"/>
</g>
<!-- requests_models -->
<g id="node13" class="node">
<title>requests_models</title><style>.edge>path:hover{stroke-width:8}</style>
<polygon fill="blue" stroke="black" points="802.86,-327.21 740.86,-327.21 740.86,-291.21 802.86,-291.21 802.86,-327.21"/>
<text text-anchor="middle" x="771.86" y="-312.21" font-family="Helvetica,sans-Serif" font-size="10.00" fill="white">requests.</text>
<text text-anchor="middle" x="771.86" y="-301.21" font-family="Helvetica,sans-Serif" font-size="10.00" fill="white">models</text>
</g>
<!-- requests__internal_utils&#45;&gt;requests_models -->
<g id="edge6" class="edge">
<title>requests__internal_utils&#45;&gt;requests_models</title><style>.edge>path:hover{stroke-width:8}</style>
<path fill="none" stroke="black" d="M721.84,-596.45C732.43,-586.31 744.59,-573.09 752.86,-559.28 757.99,-550.7 810.88,-398.58 809.86,-388.64"/>
<path fill="none" stroke="black" d="M809.86,-386.64C807.14,-368.61 798.25,-350.26 789.76,-336.05"/>
<polygon fill="#f30c0c" stroke="black" points="792.59,-333.97 784.3,-327.37 786.66,-337.7 792.59,-333.97"/>
</g>
<!-- requests_sessions -->
<g id="node15" class="node">
<title>requests_sessions</title><style>.edge>path:hover{stroke-width:8}</style>
<polygon fill="blue" stroke="black" points="460.86,-180 398.86,-180 398.86,-144 460.86,-144 460.86,-180"/>
<text text-anchor="middle" x="429.86" y="-165" font-family="Helvetica,sans-Serif" font-size="10.00" fill="white">requests.</text>
<text text-anchor="middle" x="429.86" y="-154" font-family="Helvetica,sans-Serif" font-size="10.00" fill="white">sessions</text>
</g>
<!-- requests__internal_utils&#45;&gt;requests_sessions -->
<g id="edge7" class="edge">
<title>requests__internal_utils&#45;&gt;requests_sessions</title><style>.edge>path:hover{stroke-width:8}</style>
<path fill="none" stroke="black" d="M627.86,-537.07C609.42,-510.26 642.39,-492.97 627.86,-463.85"/>
<path fill="none" stroke="black" d="M627.86,-461.85C621.86,-449.83 615.26,-450.03 602.86,-444.85 525.95,-412.77 488.07,-455.26 418.86,-408.85 375.25,-379.61 325.01,-354.08 353.86,-310.21"/>
</g>
<!-- requests__internal_utils&#45;&gt;requests_utils -->
<g id="edge8" class="edge">
<title>requests__internal_utils&#45;&gt;requests_utils</title><style>.edge>path:hover{stroke-width:8}</style>
<path fill="none" stroke="black" d="M678.79,-596.52C663.37,-581.87 642.63,-560.54 627.86,-539.07"/>
<path fill="none" stroke="black" d="M627.86,-537.07C615.12,-518.56 597.23,-500.87 582.11,-487.52"/>
<polygon fill="#f30c0c" stroke="black" points="584.35,-484.83 574.5,-480.95 579.78,-490.13 584.35,-484.83"/>
</g>
<!-- requests_adapters -->
<g id="node4" class="node">
<title>requests_adapters</title><style>.edge>path:hover{stroke-width:8}</style>
<polygon fill="blue" stroke="black" points="656.86,-252 594.86,-252 594.86,-216 656.86,-216 656.86,-252"/>
<text text-anchor="middle" x="625.86" y="-237" font-family="Helvetica,sans-Serif" font-size="10.00" fill="white">requests.</text>
<text text-anchor="middle" x="625.86" y="-226" font-family="Helvetica,sans-Serif" font-size="10.00" fill="white">adapters</text>
</g>
<!-- requests_adapters&#45;&gt;requests_sessions -->
<g id="edge9" class="edge">
<title>requests_adapters&#45;&gt;requests_sessions</title><style>.edge>path:hover{stroke-width:8}</style>
<path fill="none" stroke="black" d="M594.8,-221.91C561.21,-209.91 507.52,-190.74 470.57,-177.54"/>
<polygon fill="blue" stroke="black" points="471.69,-174.22 461.09,-174.16 469.33,-180.82 471.69,-174.22"/>
</g>
<!-- requests_api -->
<g id="node5" class="node">
<title>requests_api</title><style>.edge>path:hover{stroke-width:8}</style>
<polygon fill="blue" stroke="black" points="468.36,-108 391.36,-108 391.36,-72 468.36,-72 468.36,-108"/>
<text text-anchor="middle" x="429.86" y="-87.5" font-family="Helvetica,sans-Serif" font-size="10.00" fill="white">requests.api</text>
</g>
<!-- requests_api&#45;&gt;requests -->
<g id="edge10" class="edge">
<title>requests_api&#45;&gt;requests</title><style>.edge>path:hover{stroke-width:8}</style>
<path fill="none" stroke="black" d="M429.86,-71.7C429.86,-63.98 429.86,-54.71 429.86,-46.11"/>
<polygon fill="blue" stroke="black" points="433.36,-46.1 429.86,-36.1 426.36,-46.1 433.36,-46.1"/>
</g>
<!-- requests_auth&#45;&gt;requests_adapters -->
<g id="edge11" class="edge">
<title>requests_auth&#45;&gt;requests_adapters</title><style>.edge>path:hover{stroke-width:8}</style>
<path fill="none" stroke="black" d="M625.86,-308.21C613.33,-297.05 613.72,-277.91 617.05,-262.01"/>
<polygon fill="blue" stroke="black" points="620.48,-262.69 619.55,-252.14 613.7,-260.97 620.48,-262.69"/>
</g>
<!-- requests_auth&#45;&gt;requests_models -->
<g id="edge12" class="edge">
<title>requests_auth&#45;&gt;requests_models</title><style>.edge>path:hover{stroke-width:8}</style>
<path fill="none" stroke="black" d="M717.74,-369.3C727.12,-359.06 739.13,-345.95 749.45,-334.68"/>
<polygon fill="blue" stroke="black" points="752.11,-336.96 756.28,-327.22 746.94,-332.23 752.11,-336.96"/>
</g>
<!-- requests_auth&#45;&gt;requests_sessions -->
<g id="edge13" class="edge">
<title>requests_auth&#45;&gt;requests_sessions</title><style>.edge>path:hover{stroke-width:8}</style>
<path fill="none" stroke="black" d="M685.82,-369.35C670.81,-353.46 647.51,-329.51 625.86,-310.21"/>
<path fill="none" stroke="black" d="M625.86,-308.21C556.43,-246.35 426.4,-327.93 429.86,-235"/>
</g>
<!-- requests_certs -->
<g id="node7" class="node">
<title>requests_certs</title><style>.edge>path:hover{stroke-width:8}</style>
<ellipse fill="#c24747" stroke="black" cx="548.86" cy="-538.07" rx="50.75" ry="18"/>
<text text-anchor="middle" x="548.86" y="-535.57" font-family="Helvetica,sans-Serif" font-size="10.00" fill="#ffffff">requests.certs</text>
</g>
<!-- requests_certs&#45;&gt;requests_utils -->
<g id="edge14" class="edge">
<title>requests_certs&#45;&gt;requests_utils</title><style>.edge>path:hover{stroke-width:8}</style>
<path fill="none" stroke="black" d="M549.81,-519.72C550.27,-511.24 550.84,-500.83 551.36,-491.31"/>
<polygon fill="#c24747" stroke="black" points="554.87,-491.25 551.92,-481.08 547.88,-490.87 554.87,-491.25"/>
</g>
<!-- requests_compat -->
<g id="node8" class="node">
<title>requests_compat</title><style>.edge>path:hover{stroke-width:8}</style>
<ellipse fill="#f91010" stroke="black" cx="699.86" cy="-694.92" rx="43.68" ry="21.43"/>
<text text-anchor="middle" x="699.86" y="-697.92" font-family="Helvetica,sans-Serif" font-size="10.00" fill="#ffffff">requests.</text>
<text text-anchor="middle" x="699.86" y="-686.92" font-family="Helvetica,sans-Serif" font-size="10.00" fill="#ffffff">compat</text>
</g>
<!-- requests_compat&#45;&gt;requests__internal_utils -->
<g id="edge15" class="edge">
<title>requests_compat&#45;&gt;requests__internal_utils</title><style>.edge>path:hover{stroke-width:8}</style>
<path fill="none" stroke="black" d="M699.86,-673.44C699.86,-665.58 699.86,-656.44 699.86,-647.84"/>
<polygon fill="#f91010" stroke="black" points="703.36,-647.76 699.86,-637.76 696.36,-647.76 703.36,-647.76"/>
</g>
<!-- requests_compat&#45;&gt;requests_adapters -->
<g id="edge16" class="edge">
<title>requests_compat&#45;&gt;requests_adapters</title><style>.edge>path:hover{stroke-width:8}</style>
<path fill="none" stroke="black" d="M239.86,-461.85C224.91,-413.53 264.27,-400.26 301.86,-366.43 309,-360 446.97,-291.62 455.86,-288 498.86,-270.49 549.91,-255.29 584.77,-245.71"/>
<polygon fill="#f91010" stroke="black" points="585.86,-249.04 594.6,-243.04 584.03,-242.28 585.86,-249.04"/>
</g>
<!-- requests_compat&#45;&gt;requests_auth -->
<g id="edge17" class="edge">
<title>requests_compat&#45;&gt;requests_auth</title><style>.edge>path:hover{stroke-width:8}</style>
<path fill="none" stroke="black" d="M846.86,-615.49C859.05,-592.26 835.43,-584.68 828.86,-559.28 818.03,-517.41 823.11,-505.02 809.86,-463.85"/>
<path fill="none" stroke="black" d="M809.86,-461.85C799.19,-437.29 775.35,-419.8 752.77,-408.09"/>
<polygon fill="#f91010" stroke="black" points="754.07,-404.83 743.55,-403.58 750.99,-411.12 754.07,-404.83"/>
</g>
<!-- requests_compat&#45;&gt;requests_cookies -->
<g id="edge18" class="edge">
<title>requests_compat&#45;&gt;requests_cookies</title><style>.edge>path:hover{stroke-width:8}</style>
<path fill="none" stroke="black" d="M740.08,-686.23C775.98,-676.91 826.01,-657.23 846.86,-617.49"/>
<path fill="none" stroke="black" d="M846.86,-615.49C857.9,-594.45 793.44,-568.73 746.35,-553.14"/>
<polygon fill="#f91010" stroke="black" points="747.19,-549.73 736.59,-549.97 745.02,-556.39 747.19,-549.73"/>
</g>
<!-- requests_exceptions -->
<g id="node10" class="node">
<title>requests_exceptions</title><style>.edge>path:hover{stroke-width:8}</style>
<ellipse fill="#f30c0c" stroke="black" cx="335.86" cy="-538.07" rx="49.49" ry="21.43"/>
<text text-anchor="middle" x="335.86" y="-541.07" font-family="Helvetica,sans-Serif" font-size="10.00" fill="#ffffff">requests.</text>
<text text-anchor="middle" x="335.86" y="-530.07" font-family="Helvetica,sans-Serif" font-size="10.00" fill="#ffffff">exceptions</text>
</g>
<!-- requests_compat&#45;&gt;requests_exceptions -->
<g id="edge19" class="edge">
<title>requests_compat&#45;&gt;requests_exceptions</title><style>.edge>path:hover{stroke-width:8}</style>
<path fill="none" stroke="black" d="M374.86,-615.49C359.93,-603.95 350.22,-585.11 344.23,-569.03"/>
<polygon fill="#f91010" stroke="black" points="347.5,-567.79 340.96,-559.46 340.88,-570.05 347.5,-567.79"/>
</g>
<!-- requests_compat&#45;&gt;requests_models -->
<g id="edge20" class="edge">
<title>requests_compat&#45;&gt;requests_models</title><style>.edge>path:hover{stroke-width:8}</style>
<path fill="none" stroke="black" d="M809.86,-461.85C796.9,-432.01 814.71,-420.81 809.86,-388.64"/>
</g>
<!-- requests_packages -->
<g id="node14" class="node">
<title>requests_packages</title><style>.edge>path:hover{stroke-width:8}</style>
<ellipse fill="#c04040" stroke="black" cx="957.86" cy="-309.21" rx="43.68" ry="21.43"/>
<text text-anchor="middle" x="957.86" y="-312.21" font-family="Helvetica,sans-Serif" font-size="10.00" fill="#ffffff">requests.</text>
<text text-anchor="middle" x="957.86" y="-301.21" font-family="Helvetica,sans-Serif" font-size="10.00" fill="#ffffff">packages</text>
</g>
<!-- requests_compat&#45;&gt;requests_packages -->
<g id="edge21" class="edge">
<title>requests_compat&#45;&gt;requests_packages</title><style>.edge>path:hover{stroke-width:8}</style>
<path fill="none" stroke="black" d="M846.86,-615.49C870.12,-573.6 907.96,-595.9 938.86,-559.28 985.28,-504.27 985.28,-479.54 998.86,-408.85 1002.42,-390.34 1004.7,-384.35 998.86,-366.43 995.4,-355.81 989.09,-345.53 982.44,-336.73"/>
<polygon fill="#f91010" stroke="black" points="985.04,-334.37 976.05,-328.78 979.59,-338.76 985.04,-334.37"/>
</g>
<!-- requests_compat&#45;&gt;requests_sessions -->
<g id="edge22" class="edge">
<title>requests_compat&#45;&gt;requests_sessions</title><style>.edge>path:hover{stroke-width:8}</style>
<path fill="none" stroke="black" d="M657.69,-688.74C579.87,-678.44 417.68,-653.25 374.86,-617.49"/>
<path fill="none" stroke="black" d="M374.86,-615.49C336.61,-583.56 310.42,-596.99 277.86,-559.28 248.02,-524.73 248.61,-508.66 239.86,-463.85"/>
<path fill="none" stroke="black" d="M239.86,-461.85C227.8,-421.04 228.42,-404.29 247.86,-366.43 272.4,-318.63 296.1,-319.18 339.86,-288 377.66,-261.06 427.64,-281.37 429.86,-235"/>
<path fill="none" stroke="black" d="M429.86,-233C429.45,-218.95 429.41,-203.32 429.49,-190.39"/>
<polygon fill="#f91010" stroke="black" points="432.99,-190.29 429.58,-180.26 425.99,-190.23 432.99,-190.29"/>
</g>
<!-- requests_structures -->
<g id="node17" class="node">
<title>requests_structures</title><style>.edge>path:hover{stroke-width:8}</style>
<ellipse fill="#f30c0c" stroke="black" cx="883.86" cy="-538.07" rx="45.92" ry="21.43"/>
<text text-anchor="middle" x="883.86" y="-541.07" font-family="Helvetica,sans-Serif" font-size="10.00" fill="#ffffff">requests.</text>
<text text-anchor="middle" x="883.86" y="-530.07" font-family="Helvetica,sans-Serif" font-size="10.00" fill="#ffffff">structures</text>
</g>
<!-- requests_compat&#45;&gt;requests_structures -->
<g id="edge23" class="edge">
<title>requests_compat&#45;&gt;requests_structures</title><style>.edge>path:hover{stroke-width:8}</style>
<path fill="none" stroke="black" d="M846.86,-615.49C854.93,-600.11 863.41,-582.7 870.21,-568.39"/>
<polygon fill="#f91010" stroke="black" points="873.52,-569.57 874.62,-559.04 867.19,-566.58 873.52,-569.57"/>
</g>
<!-- requests_compat&#45;&gt;requests_utils -->
<g id="edge24" class="edge">
<title>requests_compat&#45;&gt;requests_utils</title><style>.edge>path:hover{stroke-width:8}</style>
<path fill="none" stroke="black" d="M374.86,-615.49C344.86,-592.3 453.43,-522.21 514.31,-486.01"/>
<polygon fill="#f91010" stroke="black" points="516.09,-489.03 522.92,-480.93 512.53,-483 516.09,-489.03"/>
</g>
<!-- requests_cookies&#45;&gt;requests_adapters -->
<g id="edge25" class="edge">
<title>requests_cookies&#45;&gt;requests_adapters</title><style>.edge>path:hover{stroke-width:8}</style>
<path fill="none" stroke="black" d="M701.86,-461.85C686.35,-419.59 763.14,-432.81 771.86,-388.64"/>
<path fill="none" stroke="black" d="M771.86,-386.64C775.16,-369.93 696.25,-297.16 653.1,-258.83"/>
<polygon fill="#e90c0c" stroke="black" points="655.29,-256.1 645.49,-252.09 650.66,-261.34 655.29,-256.1"/>
</g>
<!-- requests_cookies&#45;&gt;requests_auth -->
<g id="edge26" class="edge">
<title>requests_cookies&#45;&gt;requests_auth</title><style>.edge>path:hover{stroke-width:8}</style>
<path fill="none" stroke="black" d="M701.86,-461.85C696.52,-447.3 696.27,-430.01 697.46,-415.88"/>
<polygon fill="#e90c0c" stroke="black" points="700.96,-416.12 698.6,-405.79 694,-415.34 700.96,-416.12"/>
</g>
<!-- requests_cookies&#45;&gt;requests_models -->
<g id="edge27" class="edge">
<title>requests_cookies&#45;&gt;requests_models</title><style>.edge>path:hover{stroke-width:8}</style>
<path fill="none" stroke="black" d="M771.86,-386.64C775.01,-370.66 775.14,-352.44 774.42,-337.8"/>
<polygon fill="#e90c0c" stroke="black" points="777.89,-337.15 773.74,-327.4 770.9,-337.6 777.89,-337.15"/>
</g>
<!-- requests_cookies&#45;&gt;requests_sessions -->
<g id="edge28" class="edge">
<title>requests_cookies&#45;&gt;requests_sessions</title><style>.edge>path:hover{stroke-width:8}</style>
<path fill="none" stroke="black" d="M704.35,-516.84C706.77,-501.77 708.12,-480.92 701.86,-463.85"/>
<path fill="none" stroke="black" d="M701.86,-461.85C662.27,-354 526.97,-493.1 448.86,-408.85 396.01,-351.85 426.97,-312.67 429.86,-235"/>
</g>
<!-- requests_cookies&#45;&gt;requests_utils -->
<g id="edge29" class="edge">
<title>requests_cookies&#45;&gt;requests_utils</title><style>.edge>path:hover{stroke-width:8}</style>
<path fill="none" stroke="black" d="M670.11,-522.25C648.93,-511.7 620.13,-497.35 596.37,-485.52"/>
<polygon fill="#e90c0c" stroke="black" points="597.71,-482.28 587.2,-480.96 594.59,-488.55 597.71,-482.28"/>
</g>
<!-- requests_exceptions&#45;&gt;requests -->
<g id="edge30" class="edge">
<title>requests_exceptions&#45;&gt;requests</title><style>.edge>path:hover{stroke-width:8}</style>
<path fill="none" stroke="black" d="M348.72,-517.49C357.32,-503.26 367.92,-483.17 372.86,-463.85"/>
<path fill="none" stroke="black" d="M372.86,-461.85C383.42,-420.53 313.04,-446.43 292.86,-408.85 271.56,-369.19 301.94,-353.02 315.86,-310.21"/>
<path fill="none" stroke="black" d="M315.86,-308.21C318.53,-275.78 302.9,-264.85 315.86,-235"/>
</g>
<!-- requests_exceptions&#45;&gt;requests_adapters -->
<g id="edge31" class="edge">
<title>requests_exceptions&#45;&gt;requests_adapters</title><style>.edge>path:hover{stroke-width:8}</style>
<path fill="none" stroke="black" d="M372.86,-461.85C393.77,-353.36 519.5,-282.19 585.48,-251.81"/>
<polygon fill="#f30c0c" stroke="black" points="587.09,-254.92 594.77,-247.62 584.21,-248.54 587.09,-254.92"/>
</g>
<!-- requests_exceptions&#45;&gt;requests_models -->
<g id="edge32" class="edge">
<title>requests_exceptions&#45;&gt;requests_models</title><style>.edge>path:hover{stroke-width:8}</style>
<path fill="none" stroke="black" d="M372.86,-461.85C389.98,-370.63 494.2,-454.78 574.86,-408.85 598.19,-395.57 595.17,-380.79 617.86,-366.43 653.01,-344.17 698.23,-329.01 730.56,-320.09"/>
<polygon fill="#f30c0c" stroke="black" points="731.82,-323.37 740.58,-317.41 730.01,-316.61 731.82,-323.37"/>
</g>
<!-- requests_exceptions&#45;&gt;requests_sessions -->
<g id="edge33" class="edge">
<title>requests_exceptions&#45;&gt;requests_sessions</title><style>.edge>path:hover{stroke-width:8}</style>
<path fill="none" stroke="black" d="M372.86,-461.85C381.21,-423.37 319.51,-444.05 301.86,-408.85 293.41,-392 294.98,-383.98 301.86,-366.43 314.27,-334.74 334.06,-337.89 353.86,-310.21"/>
<path fill="none" stroke="black" d="M353.86,-308.21C379.63,-269.03 428.12,-281.87 429.86,-235"/>
</g>
<!-- requests_exceptions&#45;&gt;requests_utils -->
<g id="edge34" class="edge">
<title>requests_exceptions&#45;&gt;requests_utils</title><style>.edge>path:hover{stroke-width:8}</style>
<path fill="none" stroke="black" d="M373.66,-524.31C409.03,-512.38 462.16,-494.45 501.4,-481.22"/>
<polygon fill="#f30c0c" stroke="black" points="502.7,-484.47 511.05,-477.96 500.46,-477.84 502.7,-484.47"/>
</g>
<!-- requests_hooks -->
<g id="node12" class="node">
<title>requests_hooks</title><style>.edge>path:hover{stroke-width:8}</style>
<ellipse fill="#ce3b3b" stroke="black" cx="511.86" cy="-387.64" rx="53.64" ry="18"/>
<text text-anchor="middle" x="511.86" y="-385.14" font-family="Helvetica,sans-Serif" font-size="10.00" fill="#ffffff">requests.hooks</text>
</g>
<!-- requests_hooks&#45;&gt;requests_models -->
<g id="edge35" class="edge">
<title>requests_hooks&#45;&gt;requests_models</title><style>.edge>path:hover{stroke-width:8}</style>
<path fill="none" stroke="black" d="M550.69,-375.07C560.22,-372.23 570.41,-369.21 579.86,-366.43 631.85,-351.09 691.8,-333.56 730.69,-322.21"/>
<polygon fill="#ce3b3b" stroke="black" points="731.97,-325.49 740.59,-319.33 730.01,-318.77 731.97,-325.49"/>
</g>
<!-- requests_hooks&#45;&gt;requests_sessions -->
<g id="edge36" class="edge">
<title>requests_hooks&#45;&gt;requests_sessions</title><style>.edge>path:hover{stroke-width:8}</style>
<path fill="none" stroke="black" d="M500.22,-369.88C477.73,-336.89 430.48,-264.17 429.86,-235"/>
</g>
<!-- requests_models&#45;&gt;requests -->
<g id="edge37" class="edge">
<title>requests_models&#45;&gt;requests</title><style>.edge>path:hover{stroke-width:8}</style>
<path fill="none" stroke="black" d="M802.96,-294.91C836.09,-279.75 884.05,-254.56 885.86,-235"/>
<path fill="none" stroke="black" d="M885.86,-233C902.77,-49.75 583.77,-23.17 469.67,-19.51"/>
<polygon fill="blue" stroke="black" points="469.69,-16.01 459.6,-19.23 469.5,-23.01 469.69,-16.01"/>
</g>
<!-- requests_models&#45;&gt;requests_adapters -->
<g id="edge38" class="edge">
<title>requests_models&#45;&gt;requests_adapters</title><style>.edge>path:hover{stroke-width:8}</style>
<path fill="none" stroke="black" d="M740.54,-292.51C718.72,-281.56 689.42,-266.88 665.91,-255.08"/>
<polygon fill="blue" stroke="black" points="667.38,-251.91 656.88,-250.55 664.25,-258.17 667.38,-251.91"/>
</g>
<!-- requests_models&#45;&gt;requests_sessions -->
<g id="edge39" class="edge">
<title>requests_models&#45;&gt;requests_sessions</title><style>.edge>path:hover{stroke-width:8}</style>
<path fill="none" stroke="black" d="M803.06,-295.14C830.89,-281.53 864.81,-258.91 847.86,-235"/>
<path fill="none" stroke="black" d="M847.86,-233C804.75,-172.19 568.03,-163.79 471.18,-162.93"/>
<polygon fill="blue" stroke="black" points="471.19,-159.43 461.17,-162.86 471.15,-166.43 471.19,-159.43"/>
</g>
<!-- requests_packages&#45;&gt;requests -->
<g id="edge40" class="edge">
<title>requests_packages&#45;&gt;requests</title><style>.edge>path:hover{stroke-width:8}</style>
<path fill="none" stroke="black" d="M928.83,-293.17C909.03,-280.62 886.3,-260.67 885.86,-235"/>
</g>
<!-- requests_sessions&#45;&gt;requests -->
<g id="edge41" class="edge">
<title>requests_sessions&#45;&gt;requests</title><style>.edge>path:hover{stroke-width:8}</style>
<path fill="none" stroke="black" d="M398.61,-155.99C362.6,-148.34 309.16,-130.26 315.86,-91"/>
</g>
<!-- requests_sessions&#45;&gt;requests_api -->
<g id="edge42" class="edge">
<title>requests_sessions&#45;&gt;requests_api</title><style>.edge>path:hover{stroke-width:8}</style>
<path fill="none" stroke="black" d="M429.86,-143.7C429.86,-135.98 429.86,-126.71 429.86,-118.11"/>
<polygon fill="blue" stroke="black" points="433.36,-118.1 429.86,-108.1 426.36,-118.1 433.36,-118.1"/>
</g>
<!-- requests_status_codes -->
<g id="node16" class="node">
<title>requests_status_codes</title><style>.edge>path:hover{stroke-width:8}</style>
<ellipse fill="#d92626" stroke="black" cx="932.86" cy="-387.64" rx="56.64" ry="21.43"/>
<text text-anchor="middle" x="932.86" y="-390.64" font-family="Helvetica,sans-Serif" font-size="10.00" fill="#ffffff">requests.</text>
<text text-anchor="middle" x="932.86" y="-379.64" font-family="Helvetica,sans-Serif" font-size="10.00" fill="#ffffff">status_codes</text>
</g>
<!-- requests_status_codes&#45;&gt;requests -->
<g id="edge43" class="edge">
<title>requests_status_codes&#45;&gt;requests</title><style>.edge>path:hover{stroke-width:8}</style>
<path fill="none" stroke="black" d="M885.86,-308.21C873.38,-278.16 886.42,-267.53 885.86,-235"/>
</g>
<!-- requests_status_codes&#45;&gt;requests_models -->
<g id="edge44" class="edge">
<title>requests_status_codes&#45;&gt;requests_models</title><style>.edge>path:hover{stroke-width:8}</style>
<path fill="none" stroke="black" d="M898.72,-370.43C873.37,-358.4 838.71,-341.95 812.03,-329.28"/>
<polygon fill="#d92626" stroke="black" points="813.49,-326.1 802.96,-324.97 810.49,-332.42 813.49,-326.1"/>
</g>
<!-- requests_status_codes&#45;&gt;requests_sessions -->
<g id="edge45" class="edge">
<title>requests_status_codes&#45;&gt;requests_sessions</title><style>.edge>path:hover{stroke-width:8}</style>
<path fill="none" stroke="black" d="M918.25,-366.82C907.88,-351.92 894.34,-330.64 885.86,-310.21"/>
<path fill="none" stroke="black" d="M885.86,-308.21C871.8,-274.36 869.06,-264.91 847.86,-235"/>
</g>
<!-- requests_structures&#45;&gt;requests_adapters -->
<g id="edge46" class="edge">
<title>requests_structures&#45;&gt;requests_adapters</title><style>.edge>path:hover{stroke-width:8}</style>
<path fill="none" stroke="black" d="M847.86,-386.64C840.26,-353.53 863.77,-340.22 847.86,-310.21"/>
<path fill="none" stroke="black" d="M847.86,-308.21C830.64,-275.74 726.66,-252.57 667.3,-241.79"/>
<polygon fill="#f30c0c" stroke="black" points="667.58,-238.29 657.12,-239.99 666.36,-245.18 667.58,-238.29"/>
</g>
<!-- requests_structures&#45;&gt;requests_models -->
<g id="edge47" class="edge">
<title>requests_structures&#45;&gt;requests_models</title><style>.edge>path:hover{stroke-width:8}</style>
<path fill="none" stroke="black" d="M868.18,-518.1C858.17,-504 847.18,-483.81 847.86,-463.85"/>
<path fill="none" stroke="black" d="M847.86,-461.85C848.96,-429.33 855.14,-420.35 847.86,-388.64"/>
<path fill="none" stroke="black" d="M847.86,-386.64C842.82,-364.7 825.73,-346.5 809.03,-333.37"/>
<polygon fill="#f30c0c" stroke="black" points="811.03,-330.5 800.92,-327.34 806.86,-336.12 811.03,-330.5"/>
</g>
<!-- requests_structures&#45;&gt;requests_sessions -->
<g id="edge48" class="edge">
<title>requests_structures&#45;&gt;requests_sessions</title><style>.edge>path:hover{stroke-width:8}</style>
<path fill="none" stroke="black" d="M847.86,-308.21C832.61,-279.47 866.68,-261.55 847.86,-235"/>
</g>
<!-- requests_structures&#45;&gt;requests_status_codes -->
<g id="edge49" class="edge">
<title>requests_structures&#45;&gt;requests_status_codes</title><style>.edge>path:hover{stroke-width:8}</style>
<path fill="none" stroke="black" d="M847.86,-461.85C848.65,-438.45 867.44,-420.89 887.16,-408.83"/>
<polygon fill="#f30c0c" stroke="black" points="888.96,-411.84 895.91,-403.84 885.49,-405.75 888.96,-411.84"/>
</g>
<!-- requests_structures&#45;&gt;requests_utils -->
<g id="edge50" class="edge">
<title>requests_structures&#45;&gt;requests_utils</title><style>.edge>path:hover{stroke-width:8}</style>
<path fill="none" stroke="black" d="M842.04,-529.25C788.8,-519.11 694.11,-500.37 613.86,-480.85 610.71,-480.09 607.47,-479.27 604.21,-478.43"/>
<polygon fill="#f30c0c" stroke="black" points="605,-475.01 594.44,-475.84 603.21,-481.78 605,-475.01"/>
</g>
<!-- requests_utils&#45;&gt;requests -->
<g id="edge51" class="edge">
<title>requests_utils&#45;&gt;requests</title><style>.edge>path:hover{stroke-width:8}</style>
<path fill="none" stroke="black" d="M511.27,-455.85C448.61,-445.76 335.25,-423.07 315.86,-388.64"/>
<path fill="none" stroke="black" d="M315.86,-386.64C299.19,-357.04 305.36,-342.52 315.86,-310.21"/>
</g>
<!-- requests_utils&#45;&gt;requests_adapters -->
<g id="edge52" class="edge">
<title>requests_utils&#45;&gt;requests_adapters</title><style>.edge>path:hover{stroke-width:8}</style>
<path fill="none" stroke="black" d="M574.58,-444.68C591.42,-430.7 614.7,-409.88 631.86,-388.64"/>
<path fill="none" stroke="black" d="M631.86,-386.64C648.52,-366.01 616.37,-356.56 611.86,-330.43 608.65,-311.84 609.43,-306.7 611.86,-288 612.96,-279.51 615.02,-270.43 617.22,-262.24"/>
<polygon fill="blue" stroke="black" points="620.64,-263.02 620.04,-252.44 613.91,-261.09 620.64,-263.02"/>
</g>
<!-- requests_utils&#45;&gt;requests_auth -->
<g id="edge53" class="edge">
<title>requests_utils&#45;&gt;requests_auth</title><style>.edge>path:hover{stroke-width:8}</style>
<path fill="none" stroke="black" d="M587.79,-444.69C608.81,-434.36 635.74,-421.13 658.16,-410.11"/>
<polygon fill="blue" stroke="black" points="659.71,-413.25 667.14,-405.7 656.63,-406.97 659.71,-413.25"/>
</g>
<!-- requests_utils&#45;&gt;requests_models -->
<g id="edge54" class="edge">
<title>requests_utils&#45;&gt;requests_models</title><style>.edge>path:hover{stroke-width:8}</style>
<path fill="none" stroke="black" d="M631.86,-386.64C639.8,-376.81 641.53,-373.71 651.86,-366.43 676.31,-349.18 706.9,-334.94 731.07,-325.11"/>
<polygon fill="blue" stroke="black" points="732.66,-328.25 740.66,-321.31 730.08,-321.74 732.66,-328.25"/>
</g>
<!-- requests_utils&#45;&gt;requests_sessions -->
<g id="edge55" class="edge">
<title>requests_utils&#45;&gt;requests_sessions</title><style>.edge>path:hover{stroke-width:8}</style>
<path fill="none" stroke="black" d="M315.86,-386.64C297.24,-353.59 331.79,-341.07 353.86,-310.21"/>
</g>
</g>
</svg>
